<svg xmlns="http://www.w3.org/2000/svg" width="560" height="500" version="1"><path d="M329 100a49 49 0 1 1-98 0 49 49 0 1 1 98 0zM329 210a49 49 0 1 1-98 0 49 49 0 1 1 98 0zM329 320a49 49 0 1 1-98 0 49 49 0 1 1 98 0zM329 430a49 49 0 1 1-98 0 49 49 0 1 1 98 0zM119 155a49 49 0 1 1-98 0 49 49 0 1 1 98 0zM119 265a49 49 0 1 1-98 0 49 49 0 1 1 98 0zM119 375a49 49 0 1 1-98 0 49 49 0 1 1 98 0zM539 210a49 49 0 1 1-98 0 49 49 0 1 1 98 0zM539 320a49 49 0 1 1-98 0 49 49 0 1 1 98 0z" fill="#ffcf9e" stroke="#000" stroke-width="2.00018" stroke-linecap="round" stroke-linejoin="round"/><text style="text-align:center;line-height:125%" x="489.312" y="143.328" font-size="32" font-weight="400" text-anchor="middle" font-family="Bitstream Vera Sans"><tspan x="489.312" y="143.328">Output</tspan></text><text style="text-align:center;line-height:125%" x="276.781" y="40" font-size="32" font-weight="400" text-anchor="middle" font-family="Bitstream Vera Sans"><tspan x="276.781" y="40">Hidden</tspan></text><g fill-rule="evenodd"><path d="M219.563 104.094l-100 50 .874 1.812 87.5-43.75 10.938-5.469 1.375-.687.188-.094L220 105l-.438-.906z" stroke-width="2"/><path d="M228.257 100.871l-8.8 13.345-7.156-14.31 15.956.965z" stroke="#000" stroke-width=".8pt"/></g><g fill-rule="evenodd"><path d="M224.188 124.406l-105 140 1.624 1.188 91.876-122.5c6.562-8.75 9.828-13.125 11.468-15.313.82-1.094 1.233-1.633 1.438-1.906l.187-.25c.013-.017-.003-.027 0-.031l-1.594-1.188z" stroke-width="2"/><path d="M230.54 117.614l-1.905 15.872-12.8-9.6 14.704-6.272z" stroke="#000" stroke-width=".8pt"/></g><g fill-rule="evenodd"><path d="M239.125 144.531l-120 230 1.75.938 120-230-1.75-.938z" stroke-width="2"/><path d="M244.27 136.815l.691 15.97-14.185-7.4 13.494-8.57z" stroke="#000" stroke-width=".8pt"/></g><g fill-rule="evenodd"><path d="M120.344 154.063l-.688 1.875 87.5 30.625c6.25 2.187 9.375 3.296 10.938 3.843.781.274 1.18.4 1.375.469.097.034.163.054.187.063L220 190l.344-.938-100-35z" stroke-width="2"/><path d="M228.714 193.05l-15.706 2.979 5.285-15.102 10.42 12.123z" stroke="#000" stroke-width=".8pt"/></g><g fill-rule="evenodd"><path d="M229.25 249.344l-110 125 1.5 1.312L217 266.281c6.875-7.812 10.313-11.703 12.031-13.656.86-.977 1.285-1.475 1.5-1.719.108-.122.16-.188.188-.219.013-.015.028-.027.031-.03l-1.5-1.313z" stroke-width="2"/><path d="M236.099 243.07l-3.137 15.674-12.012-10.57 15.149-5.105z" stroke="#000" stroke-width=".8pt"/></g><g fill-rule="evenodd"><path d="M219.594 219.094l-100 45 .812 1.812 100-45-.812-1.812z" stroke-width="2"/><path d="M228.419 216.212l-9.338 12.974-6.566-14.59 15.904 1.616z" stroke="#000" stroke-width=".8pt"/></g><g fill-rule="evenodd"><path d="M120.344 264.063l-.688 1.875 100 35 .688-1.875-100-35z" stroke-width="2"/><path d="M228.714 303.05l-15.706 2.979 5.285-15.102 10.42 12.123z" stroke="#000" stroke-width=".8pt"/></g><g fill-rule="evenodd"><path d="M120.75 154.344l-1.5 1.312 110 125 1.5-1.312-110-125z" stroke-width="2"/><path d="M236.099 286.93l-15.149-5.104 12.012-10.57 3.137 15.675z" stroke="#000" stroke-width=".8pt"/></g><g fill-rule="evenodd"><path d="M120.875 154.531l-1.75.938 115 225 1.75-.938-115-225z" stroke-width="2"/><path d="M239.202 388.22l-13.423-8.682 14.247-7.282-.824 15.964z" stroke="#000" stroke-width=".8pt"/></g><g fill-rule="evenodd"><path d="M120.781 264.375l-1.562 1.25 105 130 1.562-1.25-105-130z" stroke-width="2"/><path d="M230.8 402.182l-14.919-5.74 12.447-10.053 2.473 15.793z" stroke="#000" stroke-width=".8pt"/></g><g fill-rule="evenodd"><path d="M120.375 374.063l-.75 1.875 100.063 40 .718-1.875-100.031-40z" stroke-width="2"/><path d="M228.616 418.427l-15.821 2.29 5.94-14.856 9.88 12.566z" stroke="#000" stroke-width=".8pt"/></g><g fill-rule="evenodd"><path d="M219.625 333.969l-100 40.094.75 1.875 100-40.094-.75-1.875z" stroke-width="2"/><path d="M228.569 331.466l-9.869 12.576-5.954-14.85 15.823 2.274z" stroke="#000" stroke-width=".8pt"/></g><g fill-rule="evenodd"><path d="M330 209v2h100v-2H330z" stroke-width="2"/><path d="M439.232 210l-13.84 8v-16l13.84 8z" stroke="#000" stroke-width=".8pt"/></g><g fill-rule="evenodd"><path d="M330 319v2h100v-2H330z" stroke-width="2"/><path d="M439.232 320l-13.84 8v-16l13.84 8z" stroke="#000" stroke-width=".8pt"/></g><g fill-rule="evenodd"><path d="M429.344 229.25l-100 90 1.312 1.5 100-90-1.312-1.5z" stroke-width="2"/><path d="M436.862 223.824l-4.935 15.205-10.704-11.893 15.64-3.312z" stroke="#000" stroke-width=".8pt"/></g><g fill-rule="evenodd"><path d="M432.423 340.5l-103.017 88.55 1.165 1.73 103.017-88.551-1.165-1.73z"/><path d="M442.343 344.405l-6.16 14.751-9.697-12.727 15.857-2.024z" stroke="#000" stroke-width=".8pt" transform="matrix(.98111 0 0 1.10688 6.223 -46.044)"/></g><g fill-rule="evenodd"><path d="M330.656 99.25l-1.312 1.5 100 85 1.312-1.5-100-85z" stroke-width="2"/><path d="M437.034 190.98l-15.726-2.869 10.362-12.19 5.364 15.058z" stroke="#000" stroke-width=".8pt"/></g><g fill-rule="evenodd"><path d="M440.87 245.567L329.69 429.542l1.62.75 111.18-183.975-1.62-.75z"/><path d="M244.27 136.815l.691 15.97-14.185-7.4 13.494-8.57z" stroke="#000" stroke-width=".8pt" transform="matrix(.9265 0 0 .79989 219.32 129.958)"/></g><g fill-rule="evenodd"><path d="M330.315 100.048l-1.73.755 113.649 181.08 1.73-.754-113.649-181.08z"/><path d="M239.202 388.22l-13.423-8.682 14.247-7.282-.824 15.964z" stroke="#000" stroke-width=".8pt" transform="matrix(.98824 0 0 .8048 210.861 -24.319)"/></g><g fill-rule="evenodd"><path d="M329.886 208.457l-1.417.953 103.973 90.787 1.418-.953-103.974-90.787z"/><path d="M236.099 286.93l-15.149-5.104 12.012-10.57 3.137 15.675z" stroke="#000" stroke-width=".8pt" transform="matrix(.94521 0 0 .7263 215.752 96.357)"/></g><text style="text-align:center;line-height:125%" x="69.828" y="93.408" font-size="32" font-weight="400" text-anchor="middle" font-family="Bitstream Vera Sans"><tspan x="69.828" y="93.408">Input</tspan></text></svg>