<svg xmlns:xlink="http://www.w3.org/1999/xlink" width="12.681ex" height="4.343ex" style="vertical-align:-.671ex" viewBox="0 -1580.7 5460 1869.7" xmlns="http://www.w3.org/2000/svg"><defs><path stroke-width="10" id="a" d="M436 683q14 0 50-1t67-2q51 0 85 1t39 1q18 0 18-8 0-4-3-15-5-18-9-20t-22-2q-25-1-40-5t-21-8-3-9q0-12 16-238t16-239l2 3q2 3 6 10t12 19 17 30 24 41 30 54 39 67q104 184 118 210t15 32q0 15-19 24t-42 9q-14 0-14 10 0 3 2 13 4 16 6 19t14 3h56q25 0 54-1 66 0 85 2 14 0 14-11 0-6-3-17t-7-15-10-3q-22 0-40-6t-30-14-19-17-12-16l-4-6-169-296Q586-14 585-15q-6-7-24-7-15 0-19 5-3 3-19 246t-17 251l-12-18q-22-37-128-223Q222-13 220-15t-5-4q-5-3-18-3-19 0-21 7 0 3-22 319t-23 318q-2 9-10 11t-39 4H58q-7 7-7 11 1 23 13 35h12q42-3 100-3 125 0 137 3h10q6-6 6-9t-2-18q-5-15-9-19h-21q-61-3-65-17 30-460 34-484l235 414-2 37q-3 42-10 45-6 4-42 5-19 0-25 2t-6 9q0 2 2 12 1 4 2 9t1 7 3 4 4 2 8 1z"/><path stroke-width="10" id="b" d="M79 43q-6 0-27 6T30 61q0 7 55 232t61 235q15 32 52 32 20 0 42-15t22-44q0-5-2-15-1-7-87-223T84 45t-5-2z"/><path stroke-width="10" id="c" d="M56 237v13l14 20h765q-116 87-143 223v3q0 2-1 3 0 12 17 12h3q9 0 12-1t6-4 3-9 3-16 8-25q22-67 73-120t119-75q9-3 9-11 0-6-5-9t-24-10-38-19q-41-26-71-60t-45-67-21-50-8-31q-2-10-5-12t-16-3q-20 0-20 11 0 7 5 25 32 126 139 205H70q-14 7-14 20z"/><path stroke-width="10" id="d" d="M23 287q1 3 2 8t5 22 10 31 15 33 20 30 26 22 33 9q75 0 96-64l10 9q62 55 118 55 65 0 102-47t37-114q0-108-76-199T249-10q-22 0-39 6-11 5-23 15t-19 17l-7 8q-1-1-22-87t-21-87q0-6 8-7t37-3h25q6-7 6-9t-3-18q-3-12-6-15t-13-4h-11q-9 0-34 1t-62 1q-70 0-89-2h-8q-7 7-7 11 2 27 13 35h20q34 1 39 12 3 6 61 239t61 247q1 5 1 14 0 41-25 41-22 0-37-28t-23-61-12-36q-2-2-16-2H29q-6 6-6 9zm155-185q22-76 74-76 30 0 58 23t46 58q18 34 36 108t19 110v6q0 74-61 74-11 0-22-3t-22-9-20-13-17-15-15-15-11-14-8-10l-3-4q0-1-3-14t-11-44-14-52q-26-106-26-110z"/><path stroke-width="10" id="e" d="M-123 694q0 8 5 14t15 6q10 0 15-8t8-19 13-27 27-27q11-7 11-18 0-9-7-15t-17-10-30-19-38-40q-14-15-22-15t-14 6-6 14 11 23 23 25 13 11h-171l-171 1-3 3q-2 2-5 3t-3 5-2 8q0 7 13 20h359q-24 38-24 59z"/><path stroke-width="10" id="f" d="M56 237v13l14 20h299v150l1 150q10 13 19 13 13 0 20-15V270h298q15-8 15-20t-15-20H409V-68q-8-14-18-14h-4q-12 0-18 14v298H70q-14 7-14 20z"/><path stroke-width="10" id="g" d="M73 647q0 10 4 23t12 13q1 0 72 5t73 6q12 0 12-9t-34-143q-8-34-17-70t-15-54l-4-19q0-3 6 3 49 40 101 40 62 0 100-46t39-116q0-111-79-201T173-11q-50 0-91 38T40 150v9q0 21 8 58t49 197q50 197 50 209t-38 14H83q-3 0-7 3t-3 7zm263-322v6q0 74-61 74-17 0-35-8t-33-21-26-24-18-22l-6-8-21-86q-22-86-22-122 0-48 24-72 16-16 40-16 33 0 67 32 25 23 40 56t33 105q18 72 18 106z"/><path stroke-width="10" id="h" d="M56 347q0 13 14 20h637q15-8 15-20 0-11-14-19l-318-1H72q-16 5-16 20zm0-194q0 15 16 20h636q14-10 14-20 0-13-15-20H70q-14 7-14 20z"/><path stroke-width="10" id="i" d="M96 585q56 81 153 81 48 0 96-26t78-92q37-83 37-228 0-155-43-237-20-42-55-67t-61-31-51-7q-26 0-52 6t-61 32-55 67q-43 82-43 237 0 174 57 265zm225 12q-30 32-71 32-42 0-72-32-25-26-33-72t-8-192q0-158 8-208t36-79q28-30 69-30 40 0 68 30 29 30 36 84t8 203q0 145-8 191t-33 73z"/></defs><g stroke="currentColor" fill="currentColor" stroke-width="0" transform="scale(1 -1)"><use xlink:href="#a"/><use transform="scale(.707)" xlink:href="#b" x="1533" y="583"/><use xlink:href="#c" x="188" y="944"/><g transform="translate(1382)"><use xlink:href="#d"/><use xlink:href="#e" x="567" y="54"/></g><use xlink:href="#f" x="2177"/><use xlink:href="#g" x="3182"/><use xlink:href="#h" x="3894"/><use xlink:href="#i" x="4955"/></g></svg>