<svg height="384" viewBox="0 0 396 288" width="528" xmlns="http://www.w3.org/2000/svg" xmlns:xlink="http://www.w3.org/1999/xlink"><defs><style>*{stroke-linecap:butt;stroke-linejoin:round}</style></defs><g id="figure_1"><path d="M0 288h396V0H0z" fill="#fff" id="patch_1"/><g id="axes_1"><path clip-path="url(#p65697c3767)" d="M202.95 259.2V28.8" fill="none" stroke="#999" stroke-linecap="square" id="line2d_1"/><path clip-path="url(#p65697c3767)" d="M49.5 254.191h306.9" fill="none" stroke="#999" stroke-linecap="square" id="line2d_2"/><path clip-path="url(#p65697c3767)" d="M49.5 253.282l6.138-.156 6.138-.182 6.138-.214 6.138-.249 6.138-.291 6.138-.339 6.138-.395 6.138-.46 6.138-.534 6.138-.62 6.138-.718 6.138-.829 6.138-.956 6.138-1.099 6.138-1.26 6.138-1.439 6.138-1.637 6.138-1.856 6.138-2.094 6.138-2.35 6.138-2.624 6.138-2.914 6.138-3.217 6.138-3.528 6.138-3.847 6.138-4.167 6.138-4.486 6.138-4.797 6.138-5.1 6.138-5.39 6.138-5.663 6.138-5.921 6.138-6.158 6.138-6.376 6.138-6.575 6.138-6.754 6.138-6.915 6.138-7.058 6.138-7.184 6.138-7.297 6.138-7.394 6.138-7.48 6.138-7.554 6.138-7.618 6.138-7.675 6.138-7.723 6.138-7.765 6.138-7.8 6.138-7.832 6.138-7.858" fill="none" stroke="green" stroke-linecap="square" id="line2d_3"/><path clip-path="url(#p65697c3767)" d="M49.5 254.191H202.95l6.138-8.014 6.138-8.014 6.138-8.013 6.138-8.014 6.138-8.014 6.138-8.014 6.138-8.014 6.138-8.014 6.138-8.014 6.138-8.014 6.138-8.014 6.138-8.014 6.138-8.014 6.138-8.013 6.138-8.014 6.138-8.014 6.138-8.014 6.138-8.014 6.138-8.014 6.138-8.014 6.138-8.014 6.138-8.014 6.138-8.014 6.138-8.014 6.138-8.014" fill="none" stroke="#00f" stroke-linecap="square" id="line2d_4"/><g id="matplotlib.axis_1"><g id="xtick_1"><g id="line2d_5"><defs><path d="M0 0v-4" id="m93b0483c22" stroke="#000" stroke-width=".5"/></defs><use x="49.5" xlink:href="#m93b0483c22" y="259.2" stroke="#000" stroke-width=".5"/></g><g id="line2d_6"><defs><path d="M0 0v4" id="m741efc42ff" stroke="#000" stroke-width=".5"/></defs><use x="49.5" xlink:href="#m741efc42ff" y="28.8" stroke="#000" stroke-width=".5"/></g><g id="text_1"><defs><path d="M52.828 31.203H5.562v8.203h47.266z" id="ArialMT-2212"/><path d="M32.328 0v17.14H1.266v8.063l32.672 46.375h7.171V25.203h9.672v-8.062H41.11V0zm0 25.203V57.47L9.906 25.203z" id="ArialMT-34"/></defs><g transform="matrix(.08 0 0 -.08 45.355 268.926)"><use xlink:href="#ArialMT-2212"/><use x="58.398" xlink:href="#ArialMT-34"/></g></g></g><g id="xtick_2"><use x="87.862" xlink:href="#m93b0483c22" y="259.2" stroke="#000" stroke-width=".5" id="line2d_7"/><use x="87.862" xlink:href="#m741efc42ff" y="28.8" stroke="#000" stroke-width=".5" id="line2d_8"/><g id="text_2"><defs><path d="M4.203 18.89l8.781 1.172q1.516-7.468 5.157-10.765Q21.78 6 27 6q6.203 0 10.469 4.297 4.281 4.297 4.281 10.656 0 6.047-3.953 9.969-3.953 3.937-10.063 3.937-2.484 0-6.203-.968l.985 7.718q.875-.109 1.406-.109 5.625 0 10.11 2.922 4.5 2.937 4.5 9.047 0 4.828-3.282 8-3.266 3.187-8.438 3.187-5.125 0-8.546-3.234-3.422-3.219-4.391-9.656l-8.797 1.562q1.61 8.828 7.313 13.688 5.718 4.859 14.218 4.859 5.86 0 10.782-2.516 4.937-2.515 7.547-6.859 2.624-4.344 2.624-9.234 0-4.625-2.5-8.438-2.484-3.812-7.359-6.062 6.344-1.453 9.86-6.078 3.515-4.61 3.515-11.547 0-9.375-6.844-15.891-6.828-6.516-17.28-6.516-9.423 0-15.657 5.61Q5.078 9.969 4.203 18.89" id="ArialMT-33"/></defs><g transform="matrix(.08 0 0 -.08 83.706 268.926)"><use xlink:href="#ArialMT-2212"/><use x="58.398" xlink:href="#ArialMT-33"/></g></g></g><g id="xtick_3"><use x="126.225" xlink:href="#m93b0483c22" y="259.2" stroke="#000" stroke-width=".5" id="line2d_9"/><use x="126.225" xlink:href="#m741efc42ff" y="28.8" stroke="#000" stroke-width=".5" id="line2d_10"/><g id="text_3"><defs><path d="M50.344 8.453V0H3.03q-.094 3.172 1.016 6.11 1.812 4.827 5.781 9.515 3.985 4.688 11.516 10.844 11.672 9.562 15.765 15.156 4.11 5.594 4.11 10.578 0 5.219-3.75 8.797-3.735 3.594-9.735 3.594-6.343 0-10.156-3.813-3.812-3.797-3.86-10.531l-9.03.922q.921 10.11 6.968 15.406 6.063 5.297 16.282 5.297 10.296 0 16.296-5.719Q50.25 60.453 50.25 52q0-4.297-1.766-8.453-1.75-4.14-5.828-8.734T29.11 22.218q-7.922-6.64-10.172-9.016-2.234-2.36-3.703-4.75z" id="ArialMT-32"/></defs><g transform="matrix(.08 0 0 -.08 122.097 268.926)"><use xlink:href="#ArialMT-2212"/><use x="58.398" xlink:href="#ArialMT-32"/></g></g></g><g id="xtick_4"><use x="164.588" xlink:href="#m93b0483c22" y="259.2" stroke="#000" stroke-width=".5" id="line2d_11"/><use x="164.588" xlink:href="#m741efc42ff" y="28.8" stroke="#000" stroke-width=".5" id="line2d_12"/><g id="text_4"><defs><path d="M37.25 0h-8.781v56q-3.172-3.016-8.328-6.047-5.157-3.031-9.25-4.547v8.5q7.375 3.469 12.89 8.39 5.516 4.938 7.813 9.579h5.656z" id="ArialMT-31"/></defs><g transform="matrix(.08 0 0 -.08 160.984 268.926)"><use xlink:href="#ArialMT-2212"/><use x="58.398" xlink:href="#ArialMT-31"/></g></g></g><g id="xtick_5"><use x="202.95" xlink:href="#m93b0483c22" y="259.2" stroke="#000" stroke-width=".5" id="line2d_13"/><use x="202.95" xlink:href="#m741efc42ff" y="28.8" stroke="#000" stroke-width=".5" id="line2d_14"/><g id="text_5"><defs><path d="M4.156 35.297q0 12.703 2.61 20.437 2.609 7.75 7.75 11.938 5.156 4.203 12.968 4.203 5.766 0 10.11-2.328 4.343-2.313 7.172-6.688 2.843-4.359 4.453-10.64 1.61-6.266 1.61-16.922 0-12.594-2.595-20.328Q45.656 7.234 40.5 3q-5.14-4.219-13.016-4.219-10.343 0-16.25 7.422-7.078 8.938-7.078 29.094m9.032 0q0-17.625 4.124-23.469Q21.438 6 27.485 6q6.063 0 10.188 5.86 4.125 5.859 4.125 23.437 0 17.687-4.125 23.484-4.125 5.813-10.281 5.813-6.047 0-9.672-5.125-4.532-6.532-4.532-24.172" id="ArialMT-30"/></defs><use xlink:href="#ArialMT-30" transform="matrix(.08 0 0 -.08 201.083 268.926)"/></g></g><g id="xtick_6"><use x="241.313" xlink:href="#m93b0483c22" y="259.2" stroke="#000" stroke-width=".5" id="line2d_15"/><use x="241.313" xlink:href="#m741efc42ff" y="28.8" stroke="#000" stroke-width=".5" id="line2d_16"/><use xlink:href="#ArialMT-31" transform="matrix(.08 0 0 -.08 240.258 268.926)" id="text_6"/></g><g id="xtick_7"><use x="279.675" xlink:href="#m93b0483c22" y="259.2" stroke="#000" stroke-width=".5" id="line2d_17"/><use x="279.675" xlink:href="#m741efc42ff" y="28.8" stroke="#000" stroke-width=".5" id="line2d_18"/><use xlink:href="#ArialMT-32" transform="matrix(.08 0 0 -.08 277.779 268.926)" id="text_7"/></g><g id="xtick_8"><use x="318.038" xlink:href="#m93b0483c22" y="259.2" stroke="#000" stroke-width=".5" id="line2d_19"/><use x="318.038" xlink:href="#m741efc42ff" y="28.8" stroke="#000" stroke-width=".5" id="line2d_20"/><use xlink:href="#ArialMT-33" transform="matrix(.08 0 0 -.08 316.163 268.926)" id="text_8"/></g><g id="xtick_9"><use x="356.4" xlink:href="#m93b0483c22" y="259.2" stroke="#000" stroke-width=".5" id="line2d_21"/><use x="356.4" xlink:href="#m741efc42ff" y="28.8" stroke="#000" stroke-width=".5" id="line2d_22"/><use xlink:href="#ArialMT-34" transform="matrix(.08 0 0 -.08 354.42 268.926)" id="text_9"/></g><g id="text_10"><defs><path d="M.734 0l18.938 26.953L2.156 51.86h10.985l7.953-12.156q2.25-3.469 3.61-5.812 2.155 3.218 3.952 5.703l8.75 12.265h10.5L29.984 27.437 49.266 0H38.484L27.828 16.11 25 20.452 11.375 0z" id="ArialMT-78"/></defs><use xlink:href="#ArialMT-78" transform="matrix(.1 0 0 -.1 200.523 282.674)"/></g></g><g id="matplotlib.axis_2"><g id="ytick_1"><g id="line2d_23"><defs><path d="M0 0h4" id="m728421d6d4" stroke="#000" stroke-width=".5"/></defs><use x="49.5" xlink:href="#m728421d6d4" y="254.191" stroke="#000" stroke-width=".5"/></g><g id="line2d_24"><defs><path d="M0 0h-4" id="mcb0005524f" stroke="#000" stroke-width=".5"/></defs><use x="356.4" xlink:href="#mcb0005524f" y="254.191" stroke="#000" stroke-width=".5"/></g><use xlink:href="#ArialMT-30" transform="matrix(.08 0 0 -.08 41.766 256.26)" id="text_11"/></g><g id="ytick_2"><use x="49.5" xlink:href="#m728421d6d4" y="204.104" stroke="#000" stroke-width=".5" id="line2d_25"/><use x="356.4" xlink:href="#mcb0005524f" y="204.104" stroke="#000" stroke-width=".5" id="line2d_26"/><use xlink:href="#ArialMT-31" transform="matrix(.08 0 0 -.08 43.391 206.172)" id="text_12"/></g><g id="ytick_3"><use x="49.5" xlink:href="#m728421d6d4" y="154.017" stroke="#000" stroke-width=".5" id="line2d_27"/><use x="356.4" xlink:href="#mcb0005524f" y="154.017" stroke="#000" stroke-width=".5" id="line2d_28"/><use xlink:href="#ArialMT-32" transform="matrix(.08 0 0 -.08 41.708 156.086)" id="text_13"/></g><g id="ytick_4"><use x="49.5" xlink:href="#m728421d6d4" y="103.93" stroke="#000" stroke-width=".5" id="line2d_29"/><use x="356.4" xlink:href="#mcb0005524f" y="103.93" stroke="#000" stroke-width=".5" id="line2d_30"/><use xlink:href="#ArialMT-33" transform="matrix(.08 0 0 -.08 41.75 105.999)" id="text_14"/></g><g id="ytick_5"><use x="49.5" xlink:href="#m728421d6d4" y="53.843" stroke="#000" stroke-width=".5" id="line2d_31"/><use x="356.4" xlink:href="#mcb0005524f" y="53.843" stroke="#000" stroke-width=".5" id="line2d_32"/><use xlink:href="#ArialMT-34" transform="matrix(.08 0 0 -.08 41.539 55.912)" id="text_15"/></g><g id="text_16"><defs><path d="M59.516 51.86v-7.126h-14.11q6.5-6.062 6.5-18.859 0-13.906-7.11-20.484-7.093-6.563-17.25-6.563-10.546 0-17.39 6.828Q3.328 12.5 3.328 25.922q0 13.828 7.094 20.469 7.11 6.64 17.125 6.64 3.656 0 8.297-1.172zM27.39 45.75q-6.391 0-10.72-4.984-4.312-4.97-4.312-14.891 0-9.86 4.22-14.844 4.218-4.969 10.968-4.969 7.078 0 11.25 5.188 4.172 5.203 4.172 14.672 0 8.656-3.844 14.234-3.828 5.594-11.734 5.594" id="ArialMT-3c3"/><path d="M12.36-21.047H6.062Q20.655 2.391 20.655 25.875q0 9.188-2.093 18.219-1.672 7.328-4.641 14.062-1.906 4.39-7.86 14.64h6.297q9.172-12.25 13.563-24.609 3.765-10.64 3.765-22.265 0-13.172-5.062-25.485-5.047-12.296-12.266-21.484" id="ArialMT-29"/><path d="M23.39-21.047Q16.11-11.859 11.079.438 6.063 12.75 6.063 25.922q0 11.625 3.75 22.265 4.39 12.36 13.578 24.61h6.297q-5.907-10.156-7.813-14.5-2.984-6.734-4.688-14.063-2.093-9.125-2.093-18.359 0-23.484 14.594-46.922z" id="ArialMT-28"/></defs><g transform="matrix(0 -.1 -.1 0 34.434 152.569)"><use xlink:href="#ArialMT-3c3"/><use x="61.719" xlink:href="#ArialMT-28"/><use x="95.02" xlink:href="#ArialMT-78"/><use x="145.02" xlink:href="#ArialMT-29"/></g></g></g><g id="text_17"><defs><path d="M40.438 6.39Q35.547 2.25 31.03.532q-4.515-1.703-9.687-1.703-8.547 0-13.14 4.172-4.595 4.172-4.595 10.672 0 3.812 1.735 6.953 1.734 3.156 4.547 5.063 2.812 1.906 6.328 2.875 2.578.687 7.812 1.328 10.64 1.265 15.672 3.015.047 1.813.047 2.297 0 5.375-2.5 7.578-3.36 2.969-10 2.969-6.203 0-9.156-2.172-2.953-2.172-4.375-7.687l-8.594 1.172q1.172 5.515 3.86 8.906 2.687 3.39 7.765 5.218 5.078 1.844 11.766 1.844 6.64 0 10.78-1.562 4.157-1.563 6.11-3.938 1.953-2.36 2.735-5.984.437-2.234.437-8.094V21.734q0-12.265.563-15.515.562-3.235 2.234-6.219h-9.188q-1.359 2.734-1.75 6.39m-.734 19.641q-4.797-1.953-14.36-3.328-5.421-.781-7.671-1.765-2.235-.97-3.469-2.844-1.219-1.875-1.219-4.172 0-3.516 2.657-5.86 2.671-2.343 7.796-2.343 5.079 0 9.032 2.218 3.953 2.22 5.812 6.079 1.422 2.984 1.422 8.78z" id="ArialMT-61"/><path d="M42.094 16.703l9.078-1.125q-2.14-7.953-7.953-12.36-5.813-4.39-14.844-4.39-11.375 0-18.047 7-6.672 7.016-6.672 19.656 0 13.094 6.735 20.313 6.75 7.234 17.484 7.234 10.406 0 17-7.078 6.594-7.078 6.594-19.922 0-.781-.047-2.343H12.75q.484-8.547 4.828-13.094 4.344-4.531 10.844-4.531 4.828 0 8.25 2.53 3.422 2.548 5.422 8.11m-28.86 14.203h28.953q-.578 6.547-3.312 9.813-4.203 5.078-10.89 5.078-6.063 0-10.188-4.047-4.125-4.047-4.563-10.844" id="ArialMT-65"/><path d="M25.781 7.86L27.047.093q-3.703-.781-6.64-.781-4.782 0-7.423 1.515-2.625 1.516-3.703 3.985Q8.203 7.28 8.203 15.188v29.828H1.766v6.843h6.437v12.844l8.735 5.266v-18.11h8.843v-6.843h-8.843V14.703q0-3.765.468-4.844.469-1.062 1.516-1.703 1.047-.64 3-.64 1.469 0 3.86.343" id="ArialMT-74"/><path d="M6.64 61.469v10.11h8.797v-10.11zM6.64 0v51.86h8.797V0z" id="ArialMT-69"/><path d="M6.5 0v51.86h7.906V44q3.031 5.516 5.594 7.266 2.563 1.765 5.64 1.765 4.438 0 9.032-2.828l-3.031-8.156q-3.22 1.906-6.438 1.906-2.89 0-5.187-1.734-2.297-1.735-3.266-4.813-1.469-4.687-1.469-10.25V0z" id="ArialMT-72"/><path d="M3.078 15.484l8.688 1.36q.734-5.219 4.078-8 3.344-2.781 9.36-2.781 6.046 0 8.968 2.453 2.937 2.468 2.937 5.796 0 2.97-2.593 4.688-1.797 1.172-8.985 2.969-9.656 2.453-13.39 4.234-3.735 1.781-5.672 4.922-1.922 3.156-1.922 6.969 0 3.453 1.578 6.406 1.594 2.969 4.328 4.922 2.047 1.5 5.578 2.547 3.547 1.062 7.61 1.062 6.093 0 10.703-1.765 4.625-1.75 6.812-4.766 2.203-3 3.032-8.016l-8.594-1.172q-.578 4-3.39 6.235-2.813 2.25-7.938 2.25-6.047 0-8.641-2-2.594-2-2.594-4.688 0-1.703 1.078-3.078 1.079-1.406 3.375-2.343 1.313-.485 7.766-2.235 9.328-2.5 13-4.094 3.688-1.578 5.781-4.609 2.11-3.016 2.11-7.516 0-4.39-2.563-8.28-2.562-3.876-7.406-6-4.828-2.126-10.922-2.126-10.11 0-15.406 4.203-5.297 4.203-6.766 12.453" id="ArialMT-73"/><path d="M6.39 0v71.578h8.797V0z" id="ArialMT-6c"/><path d="M3.328 25.922q0 14.406 8 21.344 6.688 5.765 16.313 5.765 10.687 0 17.468-7.015 6.797-7 6.797-19.36 0-10-3-15.75-3-5.734-8.75-8.906-5.734-3.172-12.515-3.172-10.891 0-17.61 6.984-6.703 6.985-6.703 20.11m9.031 0q0-9.953 4.344-14.906 4.344-4.954 10.938-4.954 6.547 0 10.89 4.97 4.344 4.984 4.344 15.187 0 9.625-4.375 14.578-4.375 4.953-10.86 4.953-6.593 0-10.937-4.938-4.344-4.921-4.344-14.89" id="ArialMT-6f"/><path d="M6.594 0v51.86H14.5v-7.376q5.719 8.547 16.5 8.547 4.688 0 8.625-1.687 3.938-1.688 5.89-4.422 1.954-2.734 2.735-6.484.484-2.454.484-8.547V0h-8.797v31.547q0 5.375-1.03 8.031-1.016 2.656-3.626 4.234-2.61 1.594-6.125 1.594-5.625 0-9.703-3.562-4.078-3.563-4.078-13.516V0z" id="ArialMT-6e"/><path d="M7.625 0v71.578h9.703l37.61-56.203v56.203h9.078V0h-9.72L16.704 56.25V0z" id="ArialMT-4e"/></defs><g transform="matrix(.072 0 0 -.072 181.554 23.8)"><use xlink:href="#ArialMT-4e"/><use x="72.217" xlink:href="#ArialMT-6f"/><use x="127.832" xlink:href="#ArialMT-6e"/><use x="183.447" xlink:href="#ArialMT-6c"/><use x="205.664" xlink:href="#ArialMT-69"/><use x="227.881" xlink:href="#ArialMT-6e"/><use x="283.496" xlink:href="#ArialMT-65"/><use x="339.111" xlink:href="#ArialMT-61"/><use x="394.727" xlink:href="#ArialMT-72"/><use x="428.027" xlink:href="#ArialMT-69"/><use x="450.244" xlink:href="#ArialMT-74"/><use x="478.027" xlink:href="#ArialMT-69"/><use x="500.244" xlink:href="#ArialMT-65"/><use x="555.859" xlink:href="#ArialMT-73"/></g></g><g id="legend_1"><path d="M61.5 41.58h14" fill="none" stroke="green" stroke-linecap="square" id="line2d_33"/><g id="text_18"><defs><path d="M4.5 23l8.922.781q.64-5.375 2.953-8.812 2.328-3.438 7.203-5.563 4.89-2.125 11-2.125 5.406 0 9.563 1.61 4.156 1.609 6.172 4.406 2.03 2.812 2.03 6.14 0 3.36-1.952 5.875-1.953 2.516-6.438 4.235-2.89 1.125-12.75 3.484-9.86 2.375-13.812 4.469-5.141 2.688-7.657 6.656-2.5 3.985-2.5 8.922 0 5.422 3.063 10.125 3.078 4.719 8.984 7.156 5.922 2.438 13.14 2.438 7.954 0 14.032-2.563 6.094-2.562 9.36-7.546 3.265-4.97 3.515-11.266l-9.078-.688q-.734 6.782-4.969 10.25-4.218 3.47-12.468 3.47-8.594 0-12.532-3.157-3.922-3.14-3.922-7.578 0-3.86 2.782-6.36 2.734-2.484 14.28-5.093 11.548-2.61 15.845-4.563 6.25-2.89 9.218-7.312 2.985-4.407 2.985-10.172 0-5.719-3.266-10.782-3.266-5.046-9.406-7.859-6.125-2.797-13.781-2.797-9.72 0-16.297 2.828-6.563 2.829-10.297 8.516Q4.687 15.828 4.5 23" id="ArialMT-53"/><path d="M6.594-19.875v71.734h8v-6.734q2.844 3.953 6.406 5.922 3.563 1.984 8.64 1.984 6.641 0 11.72-3.422 5.078-3.422 7.656-9.656 2.593-6.219 2.593-13.64 0-7.954-2.859-14.329-2.844-6.375-8.297-9.765Q35.016-1.171 29-1.171q-4.39 0-7.89 1.859-3.485 1.859-5.735 4.687v-25.25zm7.953 45.516q0-10.016 4.047-14.797 4.062-4.781 9.828-4.781 5.86 0 10.031 4.953 4.172 4.953 4.172 15.359 0 9.906-4.078 14.828-4.078 4.938-9.734 4.938-5.625 0-9.954-5.25-4.312-5.25-4.312-15.25" id="ArialMT-70"/><path d="M8.688 0v45.016H.921v6.843h7.766v5.516q0 5.219.937 7.766 1.266 3.421 4.453 5.53 3.203 2.126 8.969 2.126 3.719 0 8.203-.875l-1.313-7.656q-2.734.484-5.187.484-4 0-5.656-1.719-1.657-1.703-1.657-6.39v-4.782h10.11v-6.843h-10.11V0z" id="ArialMT-66"/><path d="M40.578 0v7.625q-6.062-8.797-16.453-8.797-4.594 0-8.578 1.75Q11.578 2.344 9.64 5q-1.922 2.672-2.704 6.531-.546 2.578-.546 8.203V51.86h8.796V23.094q0-6.875.532-9.282.828-3.453 3.515-5.437 2.688-1.984 6.641-1.984t7.422 2.03q3.469 2.032 4.906 5.517 1.453 3.5 1.453 10.14V51.86h8.782V0z" id="ArialMT-75"/></defs><g transform="matrix(.1 0 0 -.1 86.5 45.08)"><use xlink:href="#ArialMT-53"/><use x="66.699" xlink:href="#ArialMT-6f"/><use x="122.314" xlink:href="#ArialMT-66"/><use x="150.098" xlink:href="#ArialMT-74"/><use x="177.881" xlink:href="#ArialMT-70"/><use x="233.496" xlink:href="#ArialMT-6c"/><use x="255.713" xlink:href="#ArialMT-75"/><use x="311.328" xlink:href="#ArialMT-73"/></g></g><path d="M61.5 55.725h14" fill="none" stroke="#00f" stroke-linecap="square" id="line2d_35"/><g id="text_19"><defs><path d="M7.86 0v71.578h31.734q9.578 0 14.547-1.937 4.984-1.922 7.968-6.813 2.985-4.875 2.985-10.781 0-7.61-4.938-12.844-4.937-5.219-15.234-6.64Q48.688 30.765 50.64 29q4.14-3.797 7.859-9.516L70.953 0H59.031l-9.468 14.89q-4.157 6.454-6.844 9.86-2.672 3.422-4.797 4.781-2.125 1.375-4.328 1.922-1.61.328-5.266.328h-11V0zm9.468 39.984h20.375q6.484 0 10.14 1.344 3.673 1.344 5.579 4.297 1.906 2.953 1.906 6.422 0 5.078-3.687 8.344-3.688 3.28-11.657 3.28H17.328z" id="ArialMT-52"/><path d="M40.438 19l8.64-1.125q-1.422-8.938-7.266-14-5.828-5.047-14.328-5.047-10.64 0-17.109 6.953-6.469 6.969-6.469 19.953 0 8.391 2.781 14.688 2.782 6.312 8.47 9.453 5.687 3.156 12.39 3.156 8.437 0 13.812-4.281 5.375-4.266 6.891-12.125l-8.547-1.328q-1.219 5.234-4.328 7.86-3.094 2.64-7.5 2.64-6.64 0-10.797-4.766-4.14-4.75-4.14-15.047 0-10.453 4-15.187 4.015-4.735 10.453-4.735 5.172 0 8.64 3.172Q39.5 12.406 40.438 19" id="ArialMT-63"/></defs><g transform="matrix(.1 0 0 -.1 86.5 59.225)"><use xlink:href="#ArialMT-52"/><use x="72.217" xlink:href="#ArialMT-65"/><use x="127.832" xlink:href="#ArialMT-63"/><use x="177.832" xlink:href="#ArialMT-74"/><use x="205.615" xlink:href="#ArialMT-69"/><use x="227.832" xlink:href="#ArialMT-66"/><use x="255.615" xlink:href="#ArialMT-69"/><use x="277.832" xlink:href="#ArialMT-65"/><use x="333.447" xlink:href="#ArialMT-72"/></g></g></g></g></g><defs><clipPath id="p65697c3767"><path d="M49.5 28.8h306.9v230.4H49.5z"/></clipPath></defs></svg>