<?xml version="1.0" encoding="utf-8"?>
<!-- Generator: Adobe Illustrator 23.0.1, SVG Export Plug-In . SVG Version: 6.00 Build 0)  -->
<svg version="1.1" id="图层_1" xmlns="http://www.w3.org/2000/svg" xmlns:xlink="http://www.w3.org/1999/xlink" x="0px" y="0px"
	 viewBox="0 0 718 718" style="enable-background:new 0 0 718 718;" xml:space="preserve">
<style type="text/css">
	.st0{fill:url(#SVGID_1_);}
	.st1{fill:url(#SVGID_2_);}
	.st2{fill:url(#SVGID_3_);}
</style>
<linearGradient id="SVGID_1_" gradientUnits="userSpaceOnUse" x1="18" y1="359" x2="736" y2="359" gradientTransform="matrix(6.123234e-17 1 -1 6.123234e-17 718 0)">
	<stop  offset="0" style="stop-color:#972C5D"/>
	<stop  offset="1" style="stop-color:#974E27"/>
</linearGradient>
<circle class="st0" cx="359" cy="359" r="359"/>
<g>
	<linearGradient id="SVGID_2_" gradientUnits="userSpaceOnUse" x1="394.8452" y1="652.4712" x2="394.8452" y2="106.3747">
		<stop  offset="0" style="stop-color:#FF3399"/>
		<stop  offset="4.354429e-02" style="stop-color:#FF3894"/>
		<stop  offset="0.6958" style="stop-color:#FF7E4E"/>
		<stop  offset="1" style="stop-color:#FF9933"/>
	</linearGradient>
	<path class="st1" d="M212.2,599.5c2.4,4.6,2.3,9.3,3.9,13.4c1,2.6,1.6,5.3,2.3,8c4.8,17.3,17,25.6,34,28
		c39.3,5.5,74.2-5.2,105.3-29c21.4-16.4,37.2-37.1,44-63.6c4.6-18.1,5.4-36.5,4-55.2c-1-13.7-2.7-27.3-4.4-40.9
		c-1.7-13.4-4-26.7-6.3-40c-3.1-18.2-6.2-36.3-9.7-54.4c-5.6-29.2-6.7-58.6-5.8-88.2c1-31.5,6.5-62.2,18.8-91.5
		c9.7-23.1,27.2-39.2,48-52.2c18.7-11.7,38.5-21.1,60.4-24.4c22.7-3.5,45.7-6.5,67.7,4.3c0.9,0.4,1.8,0.8,2.7,1.2
		c1,0.5,1.7,1.2,1.2,2.3c-0.5,1.2-1.6,0.9-2.6,0.6c-0.8-0.2-1.5-0.6-2.2-1c-15.7-8.6-32.8-8.9-49.9-7.9c-31.1,2-58.8,14-84.3,31.3
		c-25.3,17.1-40.6,40.8-48.1,70.3c-6.6,25.9-10.7,52-10,78.8c0.4,15.1-0.4,30.3,1.1,45.4c1.6,15.7,4.4,31.3,7.3,46.8
		c3.1,16.8,6.2,33.6,8.7,50.6c2.1,14.7,5,29.2,6.7,43.9c2.3,19.3,4,38.7,2.2,58.1c-3,32.2-16.8,58.9-41.1,80.4
		c-22,19.5-47.4,31.7-76.3,36c-16.9,2.5-34,3-50.5-3.4c-9.8-3.8-16.8-10.1-20.6-20.1c-2.9-7.6-5-15.3-7.3-23
		C211.1,603,210.9,601.4,212.2,599.5z"/>
	<linearGradient id="SVGID_3_" gradientUnits="userSpaceOnUse" x1="245.3794" y1="254.3689" x2="245.3794" y2="138.4568">
		<stop  offset="0" style="stop-color:#FF3399"/>
		<stop  offset="9.508872e-02" style="stop-color:#FF4B81"/>
		<stop  offset="0.2347" style="stop-color:#FF6765"/>
		<stop  offset="0.3848" style="stop-color:#FF7D4F"/>
		<stop  offset="0.5486" style="stop-color:#FF8D3F"/>
		<stop  offset="0.736" style="stop-color:#FF9636"/>
		<stop  offset="1" style="stop-color:#FF9933"/>
	</linearGradient>
	<path class="st2" d="M137.9,164.5c2.6,2.6,2.8,5.5,3.6,8.1c5.1,16.1,17.1,26.6,30,36c22.8,16.5,48.8,22.4,76.4,20.3
		c24.1-1.8,47-9.2,69.2-18.4c10.8-4.4,21.4-9.3,32.1-14c1.1-0.5,2.3-0.9,3.9-0.3c-5.5,2.5-10.9,5.2-16.4,7.6
		c-21.2,9-42.4,17.7-65,22.7c-41.4,9-79.4,3.2-112.4-25.1c-9.9-8.5-18.1-18.4-21.5-31.5C137.4,168.1,137.4,168.1,137.9,164.5z"/>
</g>
</svg>
